<?xml version="1.0" encoding="UTF-8"?>
<svg version="1.1" xmlns="http://www.w3.org/2000/svg" width="512" height="512">
<path d="M0 0 C168.96 0 337.92 0 512 0 C512 168.96 512 337.92 512 512 C343.04 512 174.08 512 0 512 C0 343.04 0 174.08 0 0 Z " fill="#FEFEFE" transform="translate(0,0)"/>
<path d="M0 0 C2.74436527 0.0107278 5.48807622 0.0000372 8.23242188 -0.01269531 C45.32315891 -0.04505232 82.57134573 9.92970925 109.74804688 36.26074219 C112.70268119 39.42678134 115.28056615 42.70420281 117.74804688 46.26074219 C118.42480469 47.23527344 119.1015625 48.20980469 119.79882812 49.21386719 C123.62221885 55.06055884 126.63650254 60.87351208 129.12304688 67.38574219 C129.36168457 68.00594238 129.60032227 68.62614258 129.84619141 69.26513672 C133.45228249 79.29596276 134.11112178 89.36146989 134.06054688 99.94824219 C134.05490723 101.18485596 134.04926758 102.42146973 134.04345703 103.69555664 C133.65064146 133.33757557 122.08195364 157.35150602 102.74804688 179.26074219 C101.97589844 180.13601563 101.20375 181.01128906 100.40820312 181.91308594 C83.4573891 199.87400434 58.32872955 211.76469366 33.61335754 212.62306213 C30.83693554 212.67181827 28.06308495 212.67707769 25.28637695 212.65185547 C23.18244945 212.63571843 21.08043398 212.65184561 18.9765625 212.67089844 C5.9709647 212.69080308 -7.93713424 211.62145426 -18.12695312 202.76074219 C-20.90373734 199.49393723 -22.05748351 197.56646673 -22.68945312 193.32324219 C-22.22078374 190.04255647 -21.4135665 188.68587321 -19.0246582 186.43139648 C-15.26275099 183.94711813 -10.74154733 183.44640548 -6.37695312 182.63574219 C-5.34771729 182.4268335 -4.31848145 182.2179248 -3.25805664 182.00268555 C1.18575903 181.10710557 5.63817755 180.2719242 10.10351562 179.49121094 C27.19552884 176.41140666 41.33474826 169.45270612 51.74804688 155.26074219 C54.01828165 151.36744364 55.93447933 147.38404198 57.74804688 143.26074219 C58.05484375 142.6071875 58.36164063 141.95363281 58.67773438 141.28027344 C63.67161994 129.61929323 64.04485162 116.98644004 64.12304688 104.51074219 C64.13682373 103.29169189 64.15060059 102.0726416 64.16479492 100.81665039 C64.08540316 85.19552731 60.12898043 72.02833395 49.25585938 60.58105469 C31.27120584 43.94104815 4.93925528 41.26240037 -18.46679688 41.88183594 C-45.57409627 43.11310869 -68.87366899 52.18566765 -93.09179688 63.75732422 C-96.5015377 65.37947997 -99.92071202 66.97963561 -103.34570312 68.56933594 C-104.93415039 69.3068811 -104.93415039 69.3068811 -106.5546875 70.05932617 C-110.46868428 71.80269856 -113.49189789 72.44203162 -117.75195312 72.51074219 C-119.19054687 72.54941406 -119.19054687 72.54941406 -120.65820312 72.58886719 C-123.25195312 72.26074219 -123.25195312 72.26074219 -125.08789062 70.96386719 C-126.75704096 68.52175462 -126.49832722 66.45358596 -126.00195312 63.62011719 C-120.05654763 44.9168624 -99.12497267 29.58376653 -82.640625 20.88232422 C-55.83567506 7.24234883 -30.13487331 -0.13981205 0 0 Z " fill="#010101" transform="translate(252.251953125,87.7392578125)"/>
<path d="M0 0 C3.56237688 5.57793223 3.38575266 10.42788252 3.25 16.8125 C3.24484375 17.73998047 3.2396875 18.66746094 3.234375 19.62304688 C3.20062414 22.75132984 3.10813359 25.87340095 3 29 C2.96277832 30.24048096 2.92555664 31.48096191 2.88720703 32.7590332 C2.41612827 44.8649658 0.46779356 56.64540729 -1.625 68.5625 C-1.80229645 69.58991302 -1.9795929 70.61732605 -2.16226196 71.6758728 C-4.83769135 87.17181215 -7.91485777 102.52719293 -11.3984375 117.859375 C-13.89331089 128.8487694 -16.02649924 139.90600357 -18 151 C-18.12745605 151.70753418 -18.25491211 152.41506836 -18.38623047 153.14404297 C-20.08713999 162.89204895 -20.37015198 172.67908093 -20.65917969 182.55273438 C-20.80135226 187.37487615 -20.97855478 192.15712056 -21.47265625 196.95703125 C-22.00111657 202.31913554 -22.2232697 207.67661615 -22.4296875 213.05859375 C-22.46615891 213.9753891 -22.50263031 214.89218445 -22.54020691 215.83676147 C-22.69200772 219.66675231 -22.84272922 223.49663986 -22.97412109 227.32739258 C-23.93539562 254.88783674 -23.93539562 254.88783674 -30 261.9375 C-41.26409343 271.54235975 -56.97552396 273.19318923 -71.25 273.375 C-71.9527002 273.38893799 -72.65540039 273.40287598 -73.37939453 273.41723633 C-77.77985012 273.37610558 -80.53979114 272.73237183 -84 270 C-87.82598325 266.05369143 -88.76856911 262.61889256 -89.2265625 257.2890625 C-89.30121735 256.54451813 -89.37587219 255.79997375 -89.45278931 255.03286743 C-90.2149129 246.82209664 -90.39564631 238.6165914 -90.375 230.375 C-90.37478851 229.58274017 -90.37457703 228.79048035 -90.37435913 227.97421265 C-90.33163664 211.73176783 -88.6769193 196.03249167 -86 180 C-85.82871582 178.93442871 -85.65743164 177.86885742 -85.48095703 176.77099609 C-76.6967758 123.14614333 -60.70298658 39.62395191 -15.625 4.375 C-10.32385989 0.71904131 -6.51488731 -0.25548578 0 0 Z " fill="#010101" transform="translate(225,152)"/>
<path d="M0 0 C0.33 0 0.66 0 1 0 C1 13.53 1 27.06 1 41 C-12.53 41 -26.06 41 -40 41 C-36.77794772 39.38897386 -33.66489916 38.09649079 -30.3125 36.8125 C-17.71232801 31.5611525 -8.22889841 22.19948407 -2.96484375 9.59765625 C-1.78548854 6.42246916 -0.80417774 3.28981803 0 0 Z " fill="#000000" transform="translate(511,471)"/>
<path d="M0 0 C1.61102614 3.22205228 2.90350921 6.33510084 4.1875 9.6875 C9.4388475 22.28767199 18.80051593 31.77110159 31.40234375 37.03515625 C34.57753084 38.21451146 37.71018197 39.19582226 41 40 C41 40.33 41 40.66 41 41 C27.47 41 13.94 41 0 41 C0 27.47 0 13.94 0 0 Z " fill="#000000" transform="translate(0,471)"/>
<path d="M0 0 C13.53 0 27.06 0 41 0 C41 13.53 41 27.06 41 41 C39.38897386 37.77794772 38.09649079 34.66489916 36.8125 31.3125 C31.5611525 18.71232801 22.19948407 9.22889841 9.59765625 3.96484375 C6.42246916 2.78548854 3.28981803 1.80417774 0 1 C0 0.67 0 0.34 0 0 Z " fill="#000000" transform="translate(471,0)"/>
<path d="M0 0 C13.53 0 27.06 0 41 0 C37.77794772 1.61102614 34.66489916 2.90350921 31.3125 4.1875 C18.71232801 9.4388475 9.22889841 18.80051593 3.96484375 31.40234375 C2.78548854 34.57753084 1.80417774 37.71018197 1 41 C0.67 41 0.34 41 0 41 C0 27.47 0 13.94 0 0 Z " fill="#000000" transform="translate(0,0)"/>
</svg>
